<?xml version="1.0" encoding="utf-8"?>
<!-- Generator: Adobe Illustrator 19.0.0, SVG Export Plug-In . SVG Version: 6.00 Build 0)  -->
<svg version="1.1" id="Layer_1" xmlns="http://www.w3.org/2000/svg" xmlns:xlink="http://www.w3.org/1999/xlink" x="0px" y="0px"
	 viewBox="0 0 87.4 25.8" style="enable-background:new 0 0 87.4 25.8;" xml:space="preserve">
<style type="text/css">
	.st0{fill:#17191C;}
</style>
<g id="XMLID_33_">
	<polygon id="XMLID_1_" class="st0" points="14.3,8.6 15.8,4.9 23.9,24.3 21,24.3 18.6,18.6 10.2,18.6 11.3,16.1 17.4,16.1 	"/>
	<polygon id="XMLID_2_" class="st0" points="16.8,21.6 17.8,24.3 2,24.3 11.5,1.4 14.6,1.4 6.3,21.6 	"/>
</g>
<g id="XMLID_39_">
	<g id="XMLID_198_">
		<path id="XMLID_208_" class="st0" d="M31,19.9V5.9h1.6v12.6h6.2v1.5H31z"/>
		<path id="XMLID_206_" class="st0" d="M51.6,5.9v9.1c0,1.6-0.5,2.9-1.5,3.8c-1,0.9-2.3,1.4-4,1.4c-1.7,0-3-0.5-3.9-1.4
			c-0.9-0.9-1.4-2.2-1.4-3.8V5.9h1.6V15c0,1.2,0.3,2.1,1,2.7c0.6,0.6,1.6,0.9,2.8,0.9c1.2,0,2.1-0.3,2.7-0.9c0.6-0.6,1-1.5,1-2.7
			V5.9H51.6z"/>
		<path id="XMLID_204_" class="st0" d="M61.4,7.1c-1.5,0-2.8,0.5-3.7,1.5c-0.9,1-1.3,2.4-1.3,4.2c0,1.8,0.4,3.3,1.3,4.3
			c0.9,1,2.1,1.5,3.7,1.5c1,0,2.1-0.2,3.4-0.5v1.4c-1,0.4-2.2,0.5-3.6,0.5c-2.1,0-3.7-0.6-4.8-1.9s-1.7-3-1.7-5.4
			c0-1.4,0.3-2.7,0.8-3.8C56,8,56.8,7.1,57.8,6.5c1-0.6,2.2-0.9,3.6-0.9c1.5,0,2.8,0.3,3.9,0.8l-0.7,1.4C63.5,7.4,62.4,7.1,61.4,7.1
			z"/>
		<path id="XMLID_202_" class="st0" d="M67.8,19.9V5.9h1.6v14.1H67.8z"/>
		<path id="XMLID_199_" class="st0" d="M84.5,12.7c0,2.3-0.6,4.1-1.9,5.3c-1.3,1.2-3.1,1.8-5.4,1.8h-3.9V5.9h4.3
			c2.2,0,3.9,0.6,5.1,1.8S84.5,10.6,84.5,12.7z M82.8,12.8c0-1.8-0.5-3.2-1.4-4.1c-0.9-0.9-2.3-1.4-4.1-1.4h-2.4v11.2h2
			c1.9,0,3.4-0.5,4.4-1.4S82.8,14.7,82.8,12.8z"/>
	</g>
</g>
</svg>
