<?xml version="1.0" encoding="utf-8"?>
<!-- Generator: Adobe Illustrator 19.0.0, SVG Export Plug-In . SVG Version: 6.00 Build 0)  -->
<svg version="1.1" id="Layer_1" xmlns="http://www.w3.org/2000/svg" xmlns:xlink="http://www.w3.org/1999/xlink" x="0px" y="0px"
	 viewBox="-261 384.2 87.4 25.8" style="enable-background:new -261 384.2 87.4 25.8;" xml:space="preserve">
<style type="text/css">
	.st0{fill:#FFFFFF;}
</style>
<g id="XMLID_33_">
	<polygon id="XMLID_1_" class="st0" points="-246.7,392.8 -245.2,389.1 -237.1,408.5 -240,408.5 -242.4,402.8 -250.8,402.8 
		-249.7,400.3 -243.6,400.3 	"/>
	<polygon id="XMLID_2_" class="st0" points="-244.2,405.8 -243.2,408.5 -259,408.5 -249.5,385.6 -246.4,385.6 -254.7,405.8 	"/>
</g>
<g id="XMLID_39_">
	<g id="XMLID_198_">
		<path id="XMLID_208_" class="st0" d="M-230,404.1v-14h1.6v12.6h6.2v1.5h-7.8V404.1z"/>
		<path id="XMLID_206_" class="st0" d="M-209.4,390.1v9.1c0,1.6-0.5,2.9-1.5,3.8c-1,0.9-2.3,1.4-4,1.4c-1.7,0-3-0.5-3.9-1.4
			c-0.9-0.9-1.4-2.2-1.4-3.8v-9.1h1.6v9.1c0,1.2,0.3,2.1,1,2.7c0.6,0.6,1.6,0.9,2.8,0.9s2.1-0.3,2.7-0.9c0.6-0.6,1-1.5,1-2.7v-9.1
			H-209.4z"/>
		<path id="XMLID_204_" class="st0" d="M-199.6,391.3c-1.5,0-2.8,0.5-3.7,1.5c-0.9,1-1.3,2.4-1.3,4.2c0,1.8,0.4,3.3,1.3,4.3
			c0.9,1,2.1,1.5,3.7,1.5c1,0,2.1-0.2,3.4-0.5v1.4c-1,0.4-2.2,0.5-3.6,0.5c-2.1,0-3.7-0.6-4.8-1.9c-1.1-1.3-1.7-3-1.7-5.4
			c0-1.4,0.3-2.7,0.8-3.8c0.5-0.9,1.3-1.8,2.3-2.4s2.2-0.9,3.6-0.9c1.5,0,2.8,0.3,3.9,0.8l-0.7,1.4
			C-197.5,391.6-198.6,391.3-199.6,391.3z"/>
		<path id="XMLID_202_" class="st0" d="M-193.2,404.1v-14h1.6v14.1h-1.6V404.1z"/>
		<path id="XMLID_199_" class="st0" d="M-176.5,396.9c0,2.3-0.6,4.1-1.9,5.3c-1.3,1.2-3.1,1.8-5.4,1.8h-3.9v-13.9h4.3
			c2.2,0,3.9,0.6,5.1,1.8C-177.1,393.1-176.5,394.8-176.5,396.9z M-178.2,397c0-1.8-0.5-3.2-1.4-4.1c-0.9-0.9-2.3-1.4-4.1-1.4h-2.4
			v11.2h2c1.9,0,3.4-0.5,4.4-1.4S-178.2,398.9-178.2,397z"/>
	</g>
</g>
</svg>
