<svg width="1852" height="601" viewBox="0 0 1852 601" fill="none" xmlns="http://www.w3.org/2000/svg">
<rect width="1852" height="601" fill="white"/>
<path d="M292.55 284.45C292.55 288.65 292.783 292.5 293.25 296C293.717 299.267 293.95 302.3 293.95 305.1C293.95 309.767 292.783 313.733 290.45 317C288.35 320.033 285.55 322.717 282.05 325.05C278.783 327.383 275.283 329.367 271.55 331C267.817 332.867 264.433 334.617 261.4 336.25C259.067 337.417 257.2 338.35 255.8 339.05C254.4 339.983 253.35 340.567 252.65 340.8C251.95 341.033 251.367 341.15 250.9 341.15C250.667 341.383 250.433 341.5 250.2 341.5C249.967 341.5 249.267 341.617 248.1 341.85C246.933 342.317 245.417 342.783 243.55 343.25C241.917 343.95 240.167 344.417 238.3 344.65C236.433 344.883 234.567 345 232.7 345C228.967 345 225.117 344.417 221.15 343.25C217.183 342.317 212.633 341.85 207.5 341.85C205.4 341.617 203.3 341.733 201.2 342.2C199.333 342.667 197.233 343.133 194.9 343.6C191.867 344.3 189.183 344.767 186.85 345C184.75 345.233 182.65 345.467 180.55 345.7C178.683 346.167 176.7 346.4 174.6 346.4C172.733 346.633 170.4 346.867 167.6 347.1C167.6 347.1 167.133 346.867 166.2 346.4C165.267 345.933 164.333 345.467 163.4 345C162.467 344.533 161.65 343.95 160.95 343.25C160.25 342.55 159.9 341.967 159.9 341.5C159.9 341.267 160.017 341.033 160.25 340.8C160.017 340.8 159.9 340.45 159.9 339.75C159.9 339.283 160.017 338.7 160.25 338C160.717 337.3 161.183 336.833 161.65 336.6H160.95C160.483 336.6 160.017 335.9 159.55 334.5C159.317 333.333 158.967 331.817 158.5 329.95C158.267 328.083 157.917 326.1 157.45 324C157.217 321.9 156.867 319.917 156.4 318.05C156.633 317.817 157.8 318.05 159.9 318.75C162.233 319.45 164.217 319.8 165.85 319.8C167.483 319.8 168.65 319.45 169.35 318.75C173.317 319.217 176.817 319.683 179.85 320.15C182.883 320.383 185.567 320.5 187.9 320.5C192.8 320.5 197.233 319.917 201.2 318.75C205.4 317.583 211 316.183 218 314.55C218.233 314.55 219.517 314.433 221.85 314.2C224.183 313.967 226.75 313.383 229.55 312.45C232.35 311.283 234.917 309.65 237.25 307.55C239.583 305.217 240.75 301.95 240.75 297.75C240.75 296.117 240.283 294.6 239.35 293.2C238.417 291.8 237.483 290.517 236.55 289.35C235.617 287.95 234.683 286.783 233.75 285.85C233.05 284.683 232.7 283.4 232.7 282L222.9 277.8L200.5 267.65C197.7 267.183 195.133 266.25 192.8 264.85C190.7 263.217 188.717 261.467 186.85 259.6C184.983 257.5 182.883 255.633 180.55 254C178.45 252.367 175.767 250.967 172.5 249.8L168.3 246.3C165.967 244.433 164.1 242.1 162.7 239.3C161.533 236.5 160.717 233.117 160.25 229.15C160.717 228.683 161.067 227.75 161.3 226.35C161.767 224.717 162 223.2 162 221.8C162 220.4 161.883 219.583 161.65 219.35C161.417 219.117 161.3 218.65 161.3 217.95C161.3 215.617 162 213.4 163.4 211.3C165.033 208.967 165.85 206.283 165.85 203.25C167.95 201.617 169.467 200.1 170.4 198.7C171.567 197.3 172.617 196.017 173.55 194.85C175.883 191.117 179.733 187.85 185.1 185.05C190.467 182.25 195.25 179.8 199.45 177.7L217.3 168.6C221.5 167.433 225.117 166.5 228.15 165.8C231.183 165.1 235.15 163.933 240.05 162.3C241.45 162.767 242.5 163.117 243.2 163.35C244.133 163.35 245.417 163.35 247.05 163.35C250.783 163.35 253.933 163.233 256.5 163C259.067 162.767 262.217 162.417 265.95 161.95C268.283 163.35 269.917 164.283 270.85 164.75C272.017 165.217 273.883 166.033 276.45 167.2C276.45 169.3 276.45 170.933 276.45 172.1C276.45 173.033 276.45 173.967 276.45 174.9C276.683 175.6 276.8 176.417 276.8 177.35C276.8 178.283 276.917 179.683 277.15 181.55C275.517 183.883 273.067 185.05 269.8 185.05C266.767 185.05 264.55 185.05 263.15 185.05L256.5 188.2C253.7 188.9 250.317 189.833 246.35 191C242.617 192.167 239.583 193.217 237.25 194.15C235.617 195.083 233.283 196.25 230.25 197.65C227.217 198.817 224.533 199.4 222.2 199.4H220.45C215.083 202.667 211.7 205.583 210.3 208.15C209.133 210.483 208.55 214.1 208.55 219C208.55 224.133 209.133 227.517 210.3 229.15C211.467 230.55 212.517 231.25 213.45 231.25L229.55 240.35C233.983 242.917 239 245.833 244.6 249.1C250.433 252.133 256.15 254.817 261.75 257.15C261.983 257.85 262.683 258.433 263.85 258.9L274.7 264.85C276.1 265.783 277.5 266.717 278.9 267.65C280.3 268.35 282.283 269.167 284.85 270.1C284.85 271.5 285.2 272.783 285.9 273.95C286.6 274.883 287.417 275.933 288.35 277.1C289.283 278.267 290.1 279.433 290.8 280.6C291.733 281.767 292.317 283.05 292.55 284.45ZM484.495 177.35V241.4L492.545 290.4V305.45V310V321.2L472.595 329.95L463.845 328.2H443.895L440.745 319.1L443.195 311.75V287.25L444.595 281.3L443.195 280.95L444.245 249.8H420.795H403.295L396.295 250.85V325.05L387.545 327.15H354.645L351.495 309.65L355.695 241.75L361.995 224.25L367.245 168.6L373.895 165.8L391.745 167.9L396.295 172.1V228.45L394.895 230.9H446.695L452.295 228.45V175.95L457.195 172.8H478.195L484.495 177.35ZM558.925 240.7C559.391 233.467 561.141 226.933 564.175 221.1C567.441 215.267 571.291 210.25 575.725 206.05C580.391 201.617 585.525 197.883 591.125 194.85C596.958 191.817 602.791 189.367 608.625 187.5L642.225 181.55C642.458 183.183 643.508 184.233 645.375 184.7C647.475 184.933 649.691 185.05 652.025 185.05C653.891 185.05 655.875 184.933 657.975 184.7C660.308 184.467 662.058 184.35 663.225 184.35C664.858 184.35 665.908 184.7 666.375 185.4C680.841 192.633 691.691 203.017 698.925 216.55C706.391 229.85 710.125 244.9 710.125 261.7V264.85C705.691 273.25 700.091 280.483 693.325 286.55C686.791 292.383 680.258 296.467 673.725 298.8L635.575 313.15C633.241 314.783 631.258 315.95 629.625 316.65C627.991 317.117 626.358 317.583 624.725 318.05C623.325 318.283 621.691 318.4 619.825 318.4C618.191 318.4 616.091 318.4 613.525 318.4L564.525 301.95L560.675 296.35C558.808 292.383 557.641 288.533 557.175 284.8C556.941 281.067 556.825 277.217 556.825 273.25C556.825 268.117 556.941 262.983 557.175 257.85C557.641 252.717 558.225 247 558.925 240.7ZM644.325 216.55C641.758 216.083 639.425 215.85 637.325 215.85C634.058 215.85 631.141 216.667 628.575 218.3C626.008 219.7 623.558 221.45 621.225 223.55C618.891 225.417 616.675 227.4 614.575 229.5C612.708 231.367 610.841 233 608.975 234.4L606.875 265.9L618.075 277.45H624.375L673.025 266.25L685.275 247C683.875 241.167 681.658 236.617 678.625 233.35C675.825 230.083 672.558 227.517 668.825 225.65C665.325 223.55 661.358 221.917 656.925 220.75C652.491 219.583 648.291 218.183 644.325 216.55ZM774.054 265.9L771.604 264.85L778.604 264.15V170L784.904 164.75L799.254 167.2L802.054 164.4H807.304L838.804 161.95C839.038 163.817 840.321 165.1 842.654 165.8C845.221 166.267 847.904 166.617 850.704 166.85C860.038 167.317 868.204 169.533 875.204 173.5C882.204 177.467 888.038 182.367 892.704 188.2C897.371 194.033 900.871 200.683 903.204 208.15C905.771 215.383 907.054 222.5 907.054 229.5C907.054 233.467 905.538 237.317 902.504 241.05C899.704 244.55 896.321 247.817 892.354 250.85C888.388 253.883 884.304 256.45 880.104 258.55C876.138 260.417 872.988 261.817 870.654 262.75L832.154 275.7C829.588 277.1 827.254 278.15 825.154 278.85C823.288 279.55 820.838 280.133 817.804 280.6L819.204 286.9L817.454 310.7L818.504 326.45L811.504 332.4H784.554L780.704 335.55H775.104L774.054 327.5V265.9ZM812.904 194.5V218.3L815.704 234.4V243.85H820.954L869.254 234.05L881.854 216.55C880.454 211.417 878.238 207.8 875.204 205.7C872.171 203.367 868.788 201.733 865.054 200.8C861.321 199.867 857.238 199.283 852.804 199.05C848.604 198.583 844.638 197.767 840.904 196.6C833.671 194.5 827.838 193.45 823.404 193.45C821.771 193.45 820.021 193.567 818.154 193.8C816.521 194.033 814.771 194.267 812.904 194.5Z" fill="black"/>
<path d="M1047.98 294.95L1039.23 282.7C1037.6 280.367 1035.38 277.917 1032.58 275.35C1029.78 272.783 1027.1 270.45 1024.53 268.35C1023.36 267.65 1022.2 266.6 1021.03 265.2C1020.1 263.567 1019.05 261.933 1017.88 260.3C1016.71 258.667 1015.43 257.15 1014.03 255.75C1012.86 254.117 1011.58 253.067 1010.18 252.6C1009.71 252.6 1009.13 252.6 1008.43 252.6C1007.26 252.6 1006.45 252.133 1005.98 251.2C1005.75 250.267 1005.4 249.1 1004.93 247.7C1004.7 246.067 1004.23 244.433 1003.53 242.8C1002.83 240.933 1001.55 239.067 999.681 237.2L994.781 228.45H990.581C990.115 231.483 989.881 234.283 989.881 236.85C989.881 239.183 989.881 241.517 989.881 243.85V252.25C989.881 255.75 989.765 259.367 989.531 263.1C989.531 266.833 989.181 271.033 988.481 275.7C988.481 276.867 988.015 279.667 987.081 284.1C986.381 288.3 985.448 292.967 984.281 298.1C983.115 303 982.065 308.017 981.131 313.15C980.198 318.05 979.731 321.783 979.731 324.35L977.631 326.1H971.681L952.431 321.55C951.031 321.083 950.098 318.75 949.631 314.55C949.165 310.117 948.931 305.1 948.931 299.5C948.931 294.133 949.048 288.883 949.281 283.75C949.515 278.383 949.631 274.65 949.631 272.55L952.081 237.2L948.231 232.65V180.85L955.231 173.85L979.031 178.05L1000.03 174.55L1021.38 212.35L1022.08 215.15L1034.33 233L1053.58 252.95L1054.28 255.05H1062.68V174.55L1063.03 172.1H1101.88L1105.38 186.8L1107.48 200.1C1105.15 203.6 1103.86 206.167 1103.63 207.8C1103.4 209.2 1103.28 210.133 1103.28 210.6L1099.43 217.6C1100.36 224.367 1101.06 229.967 1101.53 234.4C1102 238.6 1102.23 242.683 1102.23 246.65C1102.23 252.717 1101.53 262.517 1100.13 276.05C1098.96 289.35 1098.38 304.633 1098.38 321.9L1095.93 324.35H1090.33L1070.38 319.45C1068.05 318.517 1066.88 318.167 1066.88 318.4V317C1066.88 316.767 1066.88 316.3 1066.88 315.6C1066.88 314.667 1066.88 313.733 1066.88 312.8C1065.95 312.333 1064.31 310.233 1061.98 306.5C1059.88 302.767 1056.61 299.383 1052.18 296.35H1051.13C1050.9 295.883 1050.66 295.65 1050.43 295.65C1050.43 295.65 1050.31 295.533 1050.08 295.3C1049.85 295.3 1049.73 295.183 1049.73 294.95H1047.98ZM1304.87 310.7C1305.11 312.1 1305.34 313.383 1305.57 314.55C1305.81 315.483 1306.04 316.3 1306.27 317V319.45C1306.27 319.683 1305.81 320.383 1304.87 321.55C1304.17 322.483 1303.36 323.883 1302.42 325.75L1287.37 326.8L1255.52 333.1L1241.87 337.3H1172.22V315.25L1170.12 310.35L1173.27 296V238.25L1171.52 233.35V169.65L1176.42 164.05L1178.52 164.75H1209.67L1214.57 168.6L1249.92 163.7L1277.92 159.5L1291.92 164.05V181.2L1285.62 184.7L1210.72 190.3L1208.27 192.4L1213.52 228.1L1216.67 237.55H1225.77L1253.77 234.4L1260.77 235.1H1283.87L1285.97 245.25L1281.77 250.5L1268.12 252.95H1257.27L1218.77 260.65V272.55L1222.97 308.25L1226.47 308.6H1298.22L1304.87 310.7ZM1483.71 284.45C1483.71 288.65 1483.95 292.5 1484.41 296C1484.88 299.267 1485.11 302.3 1485.11 305.1C1485.11 309.767 1483.95 313.733 1481.61 317C1479.51 320.033 1476.71 322.717 1473.21 325.05C1469.95 327.383 1466.45 329.367 1462.71 331C1458.98 332.867 1455.6 334.617 1452.56 336.25C1450.23 337.417 1448.36 338.35 1446.96 339.05C1445.56 339.983 1444.51 340.567 1443.81 340.8C1443.11 341.033 1442.53 341.15 1442.06 341.15C1441.83 341.383 1441.6 341.5 1441.36 341.5C1441.13 341.5 1440.43 341.617 1439.26 341.85C1438.1 342.317 1436.58 342.783 1434.71 343.25C1433.08 343.95 1431.33 344.417 1429.46 344.65C1427.6 344.883 1425.73 345 1423.86 345C1420.13 345 1416.28 344.417 1412.31 343.25C1408.35 342.317 1403.8 341.85 1398.66 341.85C1396.56 341.617 1394.46 341.733 1392.36 342.2C1390.5 342.667 1388.4 343.133 1386.06 343.6C1383.03 344.3 1380.35 344.767 1378.01 345C1375.91 345.233 1373.81 345.467 1371.71 345.7C1369.85 346.167 1367.86 346.4 1365.76 346.4C1363.9 346.633 1361.56 346.867 1358.76 347.1C1358.76 347.1 1358.3 346.867 1357.36 346.4C1356.43 345.933 1355.5 345.467 1354.56 345C1353.63 344.533 1352.81 343.95 1352.11 343.25C1351.41 342.55 1351.06 341.967 1351.06 341.5C1351.06 341.267 1351.18 341.033 1351.41 340.8C1351.18 340.8 1351.06 340.45 1351.06 339.75C1351.06 339.283 1351.18 338.7 1351.41 338C1351.88 337.3 1352.35 336.833 1352.81 336.6H1352.11C1351.65 336.6 1351.18 335.9 1350.71 334.5C1350.48 333.333 1350.13 331.817 1349.66 329.95C1349.43 328.083 1349.08 326.1 1348.61 324C1348.38 321.9 1348.03 319.917 1347.56 318.05C1347.8 317.817 1348.96 318.05 1351.06 318.75C1353.4 319.45 1355.38 319.8 1357.01 319.8C1358.65 319.8 1359.81 319.45 1360.51 318.75C1364.48 319.217 1367.98 319.683 1371.01 320.15C1374.05 320.383 1376.73 320.5 1379.06 320.5C1383.96 320.5 1388.4 319.917 1392.36 318.75C1396.56 317.583 1402.16 316.183 1409.16 314.55C1409.4 314.55 1410.68 314.433 1413.01 314.2C1415.35 313.967 1417.91 313.383 1420.71 312.45C1423.51 311.283 1426.08 309.65 1428.41 307.55C1430.75 305.217 1431.91 301.95 1431.91 297.75C1431.91 296.117 1431.45 294.6 1430.51 293.2C1429.58 291.8 1428.65 290.517 1427.71 289.35C1426.78 287.95 1425.85 286.783 1424.91 285.85C1424.21 284.683 1423.86 283.4 1423.86 282L1414.06 277.8L1391.66 267.65C1388.86 267.183 1386.3 266.25 1383.96 264.85C1381.86 263.217 1379.88 261.467 1378.01 259.6C1376.15 257.5 1374.05 255.633 1371.71 254C1369.61 252.367 1366.93 250.967 1363.66 249.8L1359.46 246.3C1357.13 244.433 1355.26 242.1 1353.86 239.3C1352.7 236.5 1351.88 233.117 1351.41 229.15C1351.88 228.683 1352.23 227.75 1352.46 226.35C1352.93 224.717 1353.16 223.2 1353.16 221.8C1353.16 220.4 1353.05 219.583 1352.81 219.35C1352.58 219.117 1352.46 218.65 1352.46 217.95C1352.46 215.617 1353.16 213.4 1354.56 211.3C1356.2 208.967 1357.01 206.283 1357.01 203.25C1359.11 201.617 1360.63 200.1 1361.56 198.7C1362.73 197.3 1363.78 196.017 1364.71 194.85C1367.05 191.117 1370.9 187.85 1376.26 185.05C1381.63 182.25 1386.41 179.8 1390.61 177.7L1408.46 168.6C1412.66 167.433 1416.28 166.5 1419.31 165.8C1422.35 165.1 1426.31 163.933 1431.21 162.3C1432.61 162.767 1433.66 163.117 1434.36 163.35C1435.3 163.35 1436.58 163.35 1438.21 163.35C1441.95 163.35 1445.1 163.233 1447.66 163C1450.23 162.767 1453.38 162.417 1457.11 161.95C1459.45 163.35 1461.08 164.283 1462.01 164.75C1463.18 165.217 1465.05 166.033 1467.61 167.2C1467.61 169.3 1467.61 170.933 1467.61 172.1C1467.61 173.033 1467.61 173.967 1467.61 174.9C1467.85 175.6 1467.96 176.417 1467.96 177.35C1467.96 178.283 1468.08 179.683 1468.31 181.55C1466.68 183.883 1464.23 185.05 1460.96 185.05C1457.93 185.05 1455.71 185.05 1454.31 185.05L1447.66 188.2C1444.86 188.9 1441.48 189.833 1437.51 191C1433.78 192.167 1430.75 193.217 1428.41 194.15C1426.78 195.083 1424.45 196.25 1421.41 197.65C1418.38 198.817 1415.7 199.4 1413.36 199.4H1411.61C1406.25 202.667 1402.86 205.583 1401.46 208.15C1400.3 210.483 1399.71 214.1 1399.71 219C1399.71 224.133 1400.3 227.517 1401.46 229.15C1402.63 230.55 1403.68 231.25 1404.61 231.25L1420.71 240.35C1425.15 242.917 1430.16 245.833 1435.76 249.1C1441.6 252.133 1447.31 254.817 1452.91 257.15C1453.15 257.85 1453.85 258.433 1455.01 258.9L1465.86 264.85C1467.26 265.783 1468.66 266.717 1470.06 267.65C1471.46 268.35 1473.45 269.167 1476.01 270.1C1476.01 271.5 1476.36 272.783 1477.06 273.95C1477.76 274.883 1478.58 275.933 1479.51 277.1C1480.45 278.267 1481.26 279.433 1481.96 280.6C1482.9 281.767 1483.48 283.05 1483.71 284.45ZM1573.11 202.9H1571.01C1571.01 201.967 1570.07 201.5 1568.21 201.5C1566.57 201.5 1565.29 202.083 1564.36 203.25L1558.06 203.95C1556.89 203.95 1555.72 204.067 1554.56 204.3C1553.62 204.3 1552.69 204.3 1551.76 204.3C1551.29 204.067 1550.36 203.833 1548.96 203.6C1547.56 203.133 1546.04 202.9 1544.41 202.9C1542.77 202.9 1541.84 203.25 1541.61 203.95C1538.34 204.183 1536.12 204.417 1534.96 204.65C1534.02 204.65 1532.39 204.65 1530.06 204.65C1529.36 204.417 1528.77 204.183 1528.31 203.95C1527.84 203.483 1527.37 203.017 1526.91 202.55C1525.74 202.083 1524.81 200.917 1524.11 199.05C1523.41 197.183 1522.94 194.967 1522.71 192.4C1522.71 189.833 1522.71 187.383 1522.71 185.05C1522.71 182.717 1522.71 180.967 1522.71 179.8C1522.94 179.567 1523.17 179.333 1523.41 179.1C1523.87 178.633 1524.34 178.167 1524.81 177.7L1527.26 175.6H1532.86C1534.49 175.833 1536.12 175.95 1537.76 175.95C1539.39 175.95 1541.26 175.95 1543.36 175.95C1543.36 175.95 1544.06 175.833 1545.46 175.6L1547.21 174.55C1555.14 174.55 1562.49 174.9 1569.26 175.6C1576.02 176.067 1582.67 176.65 1589.21 177.35C1595.97 178.05 1602.74 178.75 1609.51 179.45C1616.27 179.917 1623.86 180.15 1632.26 180.15C1632.26 180.85 1632.49 181.433 1632.96 181.9L1634.01 182.95C1634.47 183.183 1635.52 183.3 1637.16 183.3C1640.66 183.3 1643.34 183.3 1645.21 183.3C1647.31 183.067 1649.06 182.833 1650.46 182.6C1651.86 182.133 1653.14 181.667 1654.31 181.2C1655.47 180.733 1656.99 180.267 1658.86 179.8C1659.79 180.967 1660.14 182.133 1659.91 183.3C1659.91 184.467 1660.84 185.75 1662.71 187.15C1662.24 187.85 1662.01 188.667 1662.01 189.6C1662.01 190.767 1662.12 191.35 1662.36 191.35C1662.36 191.817 1662.24 192.633 1662.01 193.8C1661.77 194.967 1661.66 195.783 1661.66 196.25C1661.66 197.183 1661.77 197.767 1662.01 198C1662.47 198 1662.94 198 1663.41 198C1660.84 199.633 1658.27 200.917 1655.71 201.85C1653.37 202.55 1651.74 203.017 1650.81 203.25C1648.01 203.25 1645.44 203.25 1643.11 203.25C1641.01 203.25 1638.67 203.017 1636.11 202.55C1632.61 203.017 1630.16 203.483 1628.76 203.95C1627.59 204.183 1626.66 204.3 1625.96 204.3C1624.32 204.3 1623.16 204.183 1622.46 203.95C1621.76 203.717 1620.71 203.367 1619.31 202.9H1606.71L1608.11 221.8L1616.51 242.8V302.65L1618.61 310V334.15L1609.51 336.95L1581.16 334.5L1572.41 336.25L1568.21 328.2L1567.16 308.25V259.25L1573.11 225.65V202.9Z" fill="#702DFF"/>
<path d="M1094.99 411.488C1094.99 412.256 1095.03 412.96 1095.12 413.6C1095.21 414.197 1095.25 414.752 1095.25 415.264C1095.25 416.117 1095.03 416.843 1094.61 417.44C1094.22 417.995 1093.71 418.485 1093.07 418.912C1092.47 419.339 1091.83 419.701 1091.15 420C1090.47 420.341 1089.85 420.661 1089.3 420.96C1088.87 421.173 1088.53 421.344 1088.27 421.472C1088.02 421.643 1087.82 421.749 1087.7 421.792C1087.57 421.835 1087.46 421.856 1087.38 421.856C1087.33 421.899 1087.29 421.92 1087.25 421.92C1087.21 421.92 1087.08 421.941 1086.86 421.984C1086.65 422.069 1086.37 422.155 1086.03 422.24C1085.73 422.368 1085.41 422.453 1085.07 422.496C1084.73 422.539 1084.39 422.56 1084.05 422.56C1083.37 422.56 1082.66 422.453 1081.94 422.24C1081.21 422.069 1080.38 421.984 1079.44 421.984C1079.06 421.941 1078.67 421.963 1078.29 422.048C1077.95 422.133 1077.56 422.219 1077.14 422.304C1076.58 422.432 1076.09 422.517 1075.66 422.56C1075.28 422.603 1074.9 422.645 1074.51 422.688C1074.17 422.773 1073.81 422.816 1073.42 422.816C1073.08 422.859 1072.66 422.901 1072.14 422.944C1072.14 422.944 1072.06 422.901 1071.89 422.816C1071.72 422.731 1071.55 422.645 1071.38 422.56C1071.21 422.475 1071.06 422.368 1070.93 422.24C1070.8 422.112 1070.74 422.005 1070.74 421.92C1070.74 421.877 1070.76 421.835 1070.8 421.792C1070.76 421.792 1070.74 421.728 1070.74 421.6C1070.74 421.515 1070.76 421.408 1070.8 421.28C1070.89 421.152 1070.97 421.067 1071.06 421.024H1070.93C1070.84 421.024 1070.76 420.896 1070.67 420.64C1070.63 420.427 1070.57 420.149 1070.48 419.808C1070.44 419.467 1070.37 419.104 1070.29 418.72C1070.25 418.336 1070.18 417.973 1070.1 417.632C1070.14 417.589 1070.35 417.632 1070.74 417.76C1071.16 417.888 1071.53 417.952 1071.82 417.952C1072.12 417.952 1072.34 417.888 1072.46 417.76C1073.19 417.845 1073.83 417.931 1074.38 418.016C1074.94 418.059 1075.43 418.08 1075.86 418.08C1076.75 418.08 1077.56 417.973 1078.29 417.76C1079.06 417.547 1080.08 417.291 1081.36 416.992C1081.4 416.992 1081.64 416.971 1082.06 416.928C1082.49 416.885 1082.96 416.779 1083.47 416.608C1083.98 416.395 1084.45 416.096 1084.88 415.712C1085.31 415.285 1085.52 414.688 1085.52 413.92C1085.52 413.621 1085.43 413.344 1085.26 413.088C1085.09 412.832 1084.92 412.597 1084.75 412.384C1084.58 412.128 1084.41 411.915 1084.24 411.744C1084.11 411.531 1084.05 411.296 1084.05 411.04L1082.26 410.272L1078.16 408.416C1077.65 408.331 1077.18 408.16 1076.75 407.904C1076.37 407.605 1076.01 407.285 1075.66 406.944C1075.32 406.56 1074.94 406.219 1074.51 405.92C1074.13 405.621 1073.64 405.365 1073.04 405.152L1072.27 404.512C1071.85 404.171 1071.5 403.744 1071.25 403.232C1071.03 402.72 1070.89 402.101 1070.8 401.376C1070.89 401.291 1070.95 401.12 1070.99 400.864C1071.08 400.565 1071.12 400.288 1071.12 400.032C1071.12 399.776 1071.1 399.627 1071.06 399.584C1071.01 399.541 1070.99 399.456 1070.99 399.328C1070.99 398.901 1071.12 398.496 1071.38 398.112C1071.67 397.685 1071.82 397.195 1071.82 396.64C1072.21 396.341 1072.49 396.064 1072.66 395.808C1072.87 395.552 1073.06 395.317 1073.23 395.104C1073.66 394.421 1074.36 393.824 1075.34 393.312C1076.33 392.8 1077.2 392.352 1077.97 391.968L1081.23 390.304C1082 390.091 1082.66 389.92 1083.22 389.792C1083.77 389.664 1084.5 389.451 1085.39 389.152C1085.65 389.237 1085.84 389.301 1085.97 389.344C1086.14 389.344 1086.37 389.344 1086.67 389.344C1087.35 389.344 1087.93 389.323 1088.4 389.28C1088.87 389.237 1089.45 389.173 1090.13 389.088C1090.55 389.344 1090.85 389.515 1091.02 389.6C1091.24 389.685 1091.58 389.835 1092.05 390.048C1092.05 390.432 1092.05 390.731 1092.05 390.944C1092.05 391.115 1092.05 391.285 1092.05 391.456C1092.09 391.584 1092.11 391.733 1092.11 391.904C1092.11 392.075 1092.13 392.331 1092.18 392.672C1091.88 393.099 1091.43 393.312 1090.83 393.312C1090.28 393.312 1089.87 393.312 1089.62 393.312L1088.4 393.888C1087.89 394.016 1087.27 394.187 1086.54 394.4C1085.86 394.613 1085.31 394.805 1084.88 394.976C1084.58 395.147 1084.15 395.36 1083.6 395.616C1083.05 395.829 1082.55 395.936 1082.13 395.936H1081.81C1080.83 396.533 1080.21 397.067 1079.95 397.536C1079.74 397.963 1079.63 398.624 1079.63 399.52C1079.63 400.459 1079.74 401.077 1079.95 401.376C1080.17 401.632 1080.36 401.76 1080.53 401.76L1083.47 403.424C1084.28 403.893 1085.2 404.427 1086.22 405.024C1087.29 405.579 1088.34 406.069 1089.36 406.496C1089.4 406.624 1089.53 406.731 1089.74 406.816L1091.73 407.904C1091.98 408.075 1092.24 408.245 1092.5 408.416C1092.75 408.544 1093.11 408.693 1093.58 408.864C1093.58 409.12 1093.65 409.355 1093.78 409.568C1093.9 409.739 1094.05 409.931 1094.22 410.144C1094.39 410.357 1094.54 410.571 1094.67 410.784C1094.84 410.997 1094.95 411.232 1094.99 411.488ZM1124.27 402.592C1124.74 402.72 1125.1 402.933 1125.35 403.232C1125.61 403.531 1125.85 403.872 1126.06 404.256C1126.31 404.597 1126.57 404.96 1126.83 405.344C1127.13 405.685 1127.55 406.027 1128.11 406.368L1129.39 415.328L1129.32 416.16V418.208L1126.25 419.808L1124.59 419.488H1121.96L1121.39 417.824L1121.77 416.48V412L1122.09 410.912L1121.77 410.848C1121.81 410.464 1121.83 410.165 1121.83 409.952C1121.83 409.696 1121.83 409.483 1121.83 409.312C1121.83 408.971 1121.77 408.715 1121.64 408.544C1121.51 408.331 1121.41 408.096 1121.32 407.84C1121.28 407.669 1121.19 407.456 1121.07 407.2C1120.98 406.944 1120.83 406.667 1120.62 406.368C1120.41 406.069 1120.11 405.792 1119.72 405.536C1119.38 405.28 1118.95 405.088 1118.44 404.96L1115.18 405.152L1113.9 405.344V418.912L1112.3 419.296H1106.28L1105.71 416.096L1106.79 403.68L1107.63 400.48L1108.59 390.304L1109.8 389.792L1113.39 390.176V401.12L1113.64 401.696H1121.58L1122.92 402.144C1123.14 402.187 1123.35 402.251 1123.56 402.336C1123.78 402.421 1124.01 402.507 1124.27 402.592ZM1134.9 404C1135.02 403.061 1135.3 402.251 1135.73 401.568C1136.15 400.843 1136.69 400.224 1137.33 399.712C1137.97 399.157 1138.67 398.688 1139.44 398.304C1140.21 397.92 1140.98 397.621 1141.74 397.408L1146.29 396.704C1146.29 396.875 1146.39 397.003 1146.61 397.088C1146.86 397.173 1147.14 397.216 1147.44 397.216C1147.78 397.216 1148.16 397.195 1148.59 397.152C1149.02 397.109 1149.32 397.088 1149.49 397.088H1149.62C1151.54 397.984 1153.01 399.264 1154.03 400.928C1155.1 402.592 1155.63 404.448 1155.63 406.496C1155.63 407.051 1155.44 407.584 1155.06 408.096C1154.67 408.608 1154.2 409.077 1153.65 409.504C1153.14 409.888 1152.58 410.229 1151.98 410.528C1151.43 410.827 1151 411.04 1150.7 411.168L1145.33 412.96C1145.07 413.131 1144.84 413.259 1144.62 413.344C1144.41 413.429 1144.22 413.493 1144.05 413.536H1142.51L1135.73 411.552L1135.09 410.72C1134.79 409.952 1134.64 409.056 1134.64 408.032C1134.64 407.477 1134.64 406.859 1134.64 406.176C1134.68 405.493 1134.77 404.768 1134.9 404ZM1146.74 401.056C1146.31 400.928 1145.95 400.864 1145.65 400.864C1145.18 400.864 1144.73 400.971 1144.3 401.184C1143.92 401.355 1143.56 401.589 1143.22 401.888C1142.92 402.144 1142.64 402.4 1142.38 402.656C1142.13 402.912 1141.87 403.104 1141.62 403.232L1141.3 407.072L1142.96 408.544H1143.86L1150.7 407.136L1152.37 404.704C1152.15 403.936 1151.83 403.36 1151.41 402.976C1151.02 402.592 1150.58 402.293 1150.06 402.08C1149.55 401.824 1149 401.632 1148.4 401.504C1147.8 401.376 1147.25 401.227 1146.74 401.056ZM1164.91 423.456L1165.68 418.464V406.688L1166.38 404.576L1167.02 396.576L1167.66 393.824L1170.03 394.144L1170.54 393.696H1171.5L1177.32 393.184C1177.37 393.568 1177.6 393.803 1178.03 393.888C1178.5 393.973 1178.99 394.037 1179.5 394.08C1181.16 394.165 1182.64 394.571 1183.92 395.296C1185.2 396.021 1186.26 396.939 1187.12 398.048C1187.97 399.115 1188.61 400.309 1189.04 401.632C1189.51 402.955 1189.74 404.277 1189.74 405.6C1189.74 406.283 1189.46 406.965 1188.91 407.648C1188.4 408.288 1187.78 408.885 1187.05 409.44C1186.33 409.995 1185.58 410.464 1184.81 410.848C1184.09 411.232 1183.51 411.488 1183.08 411.616L1176.04 413.984C1175.58 414.283 1175.15 414.496 1174.76 414.624C1174.42 414.709 1173.98 414.795 1173.42 414.88L1173.68 416.032L1173.36 420.384L1173.61 423.328L1172.27 424.352H1167.34L1166.64 424.928H1165.61L1164.91 423.456ZM1172.52 399.136V403.488L1173.04 406.432V408.16H1174L1182.83 406.368L1185.13 403.232C1184.88 402.293 1184.47 401.611 1183.92 401.184C1183.4 400.757 1182.79 400.459 1182.06 400.288C1181.38 400.117 1180.65 400.011 1179.88 399.968C1179.12 399.883 1178.37 399.755 1177.64 399.584C1176.32 399.2 1175.26 399.008 1174.44 399.008C1174.15 399.008 1173.83 399.029 1173.48 399.072C1173.19 399.072 1172.87 399.093 1172.52 399.136ZM1232.13 398.624L1234.5 403.104L1234.24 404.576V412.256L1233.6 413.024H1226.95L1226.11 412.32L1227.14 404.896L1225.67 402.784H1224.9L1223.75 403.424L1219.65 403.872V406.432L1219.78 406.56L1220.16 412.704L1217.09 413.472L1216.13 412.896H1215.11L1213.44 413.536L1212.55 411.424V400.224V398.624L1213.7 396.96H1218.18L1220.16 400.544L1221.51 399.968L1222.98 399.328L1226.69 397.792H1231.11L1232.13 398.624ZM1242.02 404C1242.15 403.061 1242.43 402.251 1242.85 401.568C1243.28 400.843 1243.81 400.224 1244.45 399.712C1245.09 399.157 1245.8 398.688 1246.56 398.304C1247.33 397.92 1248.1 397.621 1248.87 397.408L1253.41 396.704C1253.41 396.875 1253.52 397.003 1253.73 397.088C1253.99 397.173 1254.27 397.216 1254.56 397.216C1254.91 397.216 1255.29 397.195 1255.72 397.152C1256.14 397.109 1256.44 397.088 1256.61 397.088H1256.74C1258.66 397.984 1260.13 399.264 1261.16 400.928C1262.22 402.592 1262.76 404.448 1262.76 406.496C1262.76 407.051 1262.56 407.584 1262.18 408.096C1261.8 408.608 1261.33 409.077 1260.77 409.504C1260.26 409.888 1259.71 410.229 1259.11 410.528C1258.55 410.827 1258.13 411.04 1257.83 411.168L1252.45 412.96C1252.2 413.131 1251.96 413.259 1251.75 413.344C1251.53 413.429 1251.34 413.493 1251.17 413.536H1249.64L1242.85 411.552L1242.21 410.72C1241.91 409.952 1241.76 409.056 1241.76 408.032C1241.76 407.477 1241.76 406.859 1241.76 406.176C1241.81 405.493 1241.89 404.768 1242.02 404ZM1253.86 401.056C1253.43 400.928 1253.07 400.864 1252.77 400.864C1252.3 400.864 1251.85 400.971 1251.43 401.184C1251.04 401.355 1250.68 401.589 1250.34 401.888C1250.04 402.144 1249.76 402.4 1249.51 402.656C1249.25 402.912 1249 403.104 1248.74 403.232L1248.42 407.072L1250.08 408.544H1250.98L1257.83 407.136L1259.49 404.704C1259.28 403.936 1258.96 403.36 1258.53 402.976C1258.15 402.592 1257.7 402.293 1257.19 402.08C1256.68 401.824 1256.12 401.632 1255.52 401.504C1254.93 401.376 1254.37 401.227 1253.86 401.056ZM1287.46 407.584L1285.73 410.784L1284.26 414.24L1281.31 414.816H1277.54L1276.64 413.856L1276.45 412.96L1274.02 405.664L1270.95 396.96L1271.65 395.808L1272.42 395.68L1273.89 395.872L1274.66 395.808L1276.07 398.432L1278.63 404.832L1279.65 409.312L1284.26 399.584L1285.22 396.384L1287.71 396.576L1290.08 402.72L1292.58 409.12L1297.31 399.2L1297.25 398.496L1298.79 396.64L1301.09 396.832H1305.06L1305.38 397.344L1305.06 398.24L1304.23 399.584L1304.16 400.48L1302.11 404.896L1298.59 411.872L1297.12 414.24L1293.67 414.816H1289.83L1288.93 413.856L1287.46 407.584ZM1354.68 411.488C1354.68 412.256 1354.72 412.96 1354.81 413.6C1354.89 414.197 1354.94 414.752 1354.94 415.264C1354.94 416.117 1354.72 416.843 1354.3 417.44C1353.91 417.995 1353.4 418.485 1352.76 418.912C1352.16 419.339 1351.52 419.701 1350.84 420C1350.16 420.341 1349.54 420.661 1348.98 420.96C1348.56 421.173 1348.22 421.344 1347.96 421.472C1347.7 421.643 1347.51 421.749 1347.38 421.792C1347.26 421.835 1347.15 421.856 1347.06 421.856C1347.02 421.899 1346.98 421.92 1346.94 421.92C1346.89 421.92 1346.76 421.941 1346.55 421.984C1346.34 422.069 1346.06 422.155 1345.72 422.24C1345.42 422.368 1345.1 422.453 1344.76 422.496C1344.42 422.539 1344.08 422.56 1343.74 422.56C1343.05 422.56 1342.35 422.453 1341.62 422.24C1340.9 422.069 1340.07 421.984 1339.13 421.984C1338.74 421.941 1338.36 421.963 1337.98 422.048C1337.63 422.133 1337.25 422.219 1336.82 422.304C1336.27 422.432 1335.78 422.517 1335.35 422.56C1334.97 422.603 1334.58 422.645 1334.2 422.688C1333.86 422.773 1333.5 422.816 1333.11 422.816C1332.77 422.859 1332.34 422.901 1331.83 422.944C1331.83 422.944 1331.75 422.901 1331.58 422.816C1331.4 422.731 1331.23 422.645 1331.06 422.56C1330.89 422.475 1330.74 422.368 1330.62 422.24C1330.49 422.112 1330.42 422.005 1330.42 421.92C1330.42 421.877 1330.44 421.835 1330.49 421.792C1330.44 421.792 1330.42 421.728 1330.42 421.6C1330.42 421.515 1330.44 421.408 1330.49 421.28C1330.57 421.152 1330.66 421.067 1330.74 421.024H1330.62C1330.53 421.024 1330.44 420.896 1330.36 420.64C1330.32 420.427 1330.25 420.149 1330.17 419.808C1330.12 419.467 1330.06 419.104 1329.98 418.72C1329.93 418.336 1329.87 417.973 1329.78 417.632C1329.83 417.589 1330.04 417.632 1330.42 417.76C1330.85 417.888 1331.21 417.952 1331.51 417.952C1331.81 417.952 1332.02 417.888 1332.15 417.76C1332.88 417.845 1333.52 417.931 1334.07 418.016C1334.63 418.059 1335.12 418.08 1335.54 418.08C1336.44 418.08 1337.25 417.973 1337.98 417.76C1338.74 417.547 1339.77 417.291 1341.05 416.992C1341.09 416.992 1341.32 416.971 1341.75 416.928C1342.18 416.885 1342.65 416.779 1343.16 416.608C1343.67 416.395 1344.14 416.096 1344.57 415.712C1344.99 415.285 1345.21 414.688 1345.21 413.92C1345.21 413.621 1345.12 413.344 1344.95 413.088C1344.78 412.832 1344.61 412.597 1344.44 412.384C1344.27 412.128 1344.1 411.915 1343.93 411.744C1343.8 411.531 1343.74 411.296 1343.74 411.04L1341.94 410.272L1337.85 408.416C1337.34 408.331 1336.87 408.16 1336.44 407.904C1336.06 407.605 1335.69 407.285 1335.35 406.944C1335.01 406.56 1334.63 406.219 1334.2 405.92C1333.82 405.621 1333.32 405.365 1332.73 405.152L1331.96 404.512C1331.53 404.171 1331.19 403.744 1330.94 403.232C1330.72 402.72 1330.57 402.101 1330.49 401.376C1330.57 401.291 1330.64 401.12 1330.68 400.864C1330.76 400.565 1330.81 400.288 1330.81 400.032C1330.81 399.776 1330.79 399.627 1330.74 399.584C1330.7 399.541 1330.68 399.456 1330.68 399.328C1330.68 398.901 1330.81 398.496 1331.06 398.112C1331.36 397.685 1331.51 397.195 1331.51 396.64C1331.9 396.341 1332.17 396.064 1332.34 395.808C1332.56 395.552 1332.75 395.317 1332.92 395.104C1333.35 394.421 1334.05 393.824 1335.03 393.312C1336.01 392.8 1336.89 392.352 1337.66 391.968L1340.92 390.304C1341.69 390.091 1342.35 389.92 1342.9 389.792C1343.46 389.664 1344.18 389.451 1345.08 389.152C1345.34 389.237 1345.53 389.301 1345.66 389.344C1345.83 389.344 1346.06 389.344 1346.36 389.344C1347.04 389.344 1347.62 389.323 1348.09 389.28C1348.56 389.237 1349.13 389.173 1349.82 389.088C1350.24 389.344 1350.54 389.515 1350.71 389.6C1350.92 389.685 1351.27 389.835 1351.74 390.048C1351.74 390.432 1351.74 390.731 1351.74 390.944C1351.74 391.115 1351.74 391.285 1351.74 391.456C1351.78 391.584 1351.8 391.733 1351.8 391.904C1351.8 392.075 1351.82 392.331 1351.86 392.672C1351.56 393.099 1351.12 393.312 1350.52 393.312C1349.96 393.312 1349.56 393.312 1349.3 393.312L1348.09 393.888C1347.58 394.016 1346.96 394.187 1346.23 394.4C1345.55 394.613 1344.99 394.805 1344.57 394.976C1344.27 395.147 1343.84 395.36 1343.29 395.616C1342.73 395.829 1342.24 395.936 1341.82 395.936H1341.5C1340.51 396.533 1339.9 397.067 1339.64 397.536C1339.43 397.963 1339.32 398.624 1339.32 399.52C1339.32 400.459 1339.43 401.077 1339.64 401.376C1339.85 401.632 1340.04 401.76 1340.22 401.76L1343.16 403.424C1343.97 403.893 1344.89 404.427 1345.91 405.024C1346.98 405.579 1348.02 406.069 1349.05 406.496C1349.09 406.624 1349.22 406.731 1349.43 406.816L1351.42 407.904C1351.67 408.075 1351.93 408.245 1352.18 408.416C1352.44 408.544 1352.8 408.693 1353.27 408.864C1353.27 409.12 1353.34 409.355 1353.46 409.568C1353.59 409.739 1353.74 409.931 1353.91 410.144C1354.08 410.357 1354.23 410.571 1354.36 410.784C1354.53 410.997 1354.64 411.232 1354.68 411.488ZM1383.95 402.592C1384.42 402.72 1384.79 402.933 1385.04 403.232C1385.3 403.531 1385.53 403.872 1385.75 404.256C1386 404.597 1386.26 404.96 1386.51 405.344C1386.81 405.685 1387.24 406.027 1387.79 406.368L1389.07 415.328L1389.01 416.16V418.208L1385.94 419.808L1384.27 419.488H1381.65L1381.07 417.824L1381.46 416.48V412L1381.78 410.912L1381.46 410.848C1381.5 410.464 1381.52 410.165 1381.52 409.952C1381.52 409.696 1381.52 409.483 1381.52 409.312C1381.52 408.971 1381.46 408.715 1381.33 408.544C1381.2 408.331 1381.1 408.096 1381.01 407.84C1380.97 407.669 1380.88 407.456 1380.75 407.2C1380.67 406.944 1380.52 406.667 1380.31 406.368C1380.09 406.069 1379.79 405.792 1379.41 405.536C1379.07 405.28 1378.64 405.088 1378.13 404.96L1374.87 405.152L1373.59 405.344V418.912L1371.99 419.296H1365.97L1365.39 416.096L1366.48 403.68L1367.31 400.48L1368.27 390.304L1369.49 389.792L1373.07 390.176V401.12L1373.33 401.696H1381.27L1382.61 402.144C1382.82 402.187 1383.04 402.251 1383.25 402.336C1383.46 402.421 1383.7 402.507 1383.95 402.592ZM1394.58 404C1394.71 403.061 1394.99 402.251 1395.41 401.568C1395.84 400.843 1396.37 400.224 1397.01 399.712C1397.65 399.157 1398.36 398.688 1399.13 398.304C1399.89 397.92 1400.66 397.621 1401.43 397.408L1405.97 396.704C1405.97 396.875 1406.08 397.003 1406.29 397.088C1406.55 397.173 1406.83 397.216 1407.13 397.216C1407.47 397.216 1407.85 397.195 1408.28 397.152C1408.71 397.109 1409 397.088 1409.17 397.088H1409.3C1411.22 397.984 1412.69 399.264 1413.72 400.928C1414.79 402.592 1415.32 404.448 1415.32 406.496C1415.32 407.051 1415.13 407.584 1414.74 408.096C1414.36 408.608 1413.89 409.077 1413.33 409.504C1412.82 409.888 1412.27 410.229 1411.67 410.528C1411.12 410.827 1410.69 411.04 1410.39 411.168L1405.01 412.96C1404.76 413.131 1404.52 413.259 1404.31 413.344C1404.1 413.429 1403.91 413.493 1403.73 413.536H1402.2L1395.41 411.552L1394.77 410.72C1394.48 409.952 1394.33 409.056 1394.33 408.032C1394.33 407.477 1394.33 406.859 1394.33 406.176C1394.37 405.493 1394.45 404.768 1394.58 404ZM1406.42 401.056C1406 400.928 1405.63 400.864 1405.33 400.864C1404.87 400.864 1404.42 400.971 1403.99 401.184C1403.61 401.355 1403.24 401.589 1402.9 401.888C1402.6 402.144 1402.33 402.4 1402.07 402.656C1401.81 402.912 1401.56 403.104 1401.3 403.232L1400.98 407.072L1402.65 408.544H1403.54L1410.39 407.136L1412.05 404.704C1411.84 403.936 1411.52 403.36 1411.09 402.976C1410.71 402.592 1410.26 402.293 1409.75 402.08C1409.24 401.824 1408.68 401.632 1408.09 401.504C1407.49 401.376 1406.93 401.227 1406.42 401.056ZM1424.6 423.456L1425.36 418.464V406.688L1426.07 404.576L1426.71 396.576L1427.35 393.824L1429.72 394.144L1430.23 393.696H1431.19L1437.01 393.184C1437.05 393.568 1437.29 393.803 1437.72 393.888C1438.19 393.973 1438.68 394.037 1439.19 394.08C1440.85 394.165 1442.32 394.571 1443.6 395.296C1444.88 396.021 1445.95 396.939 1446.8 398.048C1447.66 399.115 1448.3 400.309 1448.72 401.632C1449.19 402.955 1449.43 404.277 1449.43 405.6C1449.43 406.283 1449.15 406.965 1448.6 407.648C1448.08 408.288 1447.47 408.885 1446.74 409.44C1446.01 409.995 1445.27 410.464 1444.5 410.848C1443.77 411.232 1443.2 411.488 1442.77 411.616L1435.73 413.984C1435.26 414.283 1434.84 414.496 1434.45 414.624C1434.11 414.709 1433.66 414.795 1433.11 414.88L1433.36 416.032L1433.04 420.384L1433.3 423.328L1431.96 424.352H1427.03L1426.32 424.928H1425.3L1424.6 423.456ZM1432.21 399.136V403.488L1432.72 406.432V408.16H1433.68L1442.52 406.368L1444.82 403.232C1444.56 402.293 1444.16 401.611 1443.6 401.184C1443.09 400.757 1442.47 400.459 1441.75 400.288C1441.07 400.117 1440.34 400.011 1439.57 399.968C1438.8 399.883 1438.06 399.755 1437.33 399.584C1436.01 399.2 1434.94 399.008 1434.13 399.008C1433.83 399.008 1433.51 399.029 1433.17 399.072C1432.87 399.072 1432.55 399.093 1432.21 399.136ZM1488.04 401.952L1491.5 403.488C1492.48 404.043 1493.29 404.597 1493.93 405.152C1494.57 405.664 1495.08 406.24 1495.47 406.88C1495.85 407.52 1496.13 408.245 1496.3 409.056C1496.47 409.867 1496.55 410.869 1496.55 412.064C1496.55 412.704 1496.32 413.387 1495.85 414.112C1495.38 414.837 1494.8 415.52 1494.12 416.16C1493.48 416.757 1492.82 417.291 1492.14 417.76C1491.45 418.229 1490.9 418.549 1490.47 418.72L1485.16 420.512C1484.69 420.768 1484.2 420.939 1483.69 421.024C1483.18 421.109 1482.73 421.152 1482.35 421.152L1479.53 420.32H1475.31L1474.6 420.832H1473.64L1473.39 419.424V408.16L1473 407.968L1474.22 407.776V391.136L1475.37 390.048H1478.63L1479.79 390.944V391.328C1479.79 391.968 1479.85 392.523 1479.98 392.992C1480.15 393.461 1480.23 393.824 1480.23 394.08C1480.23 394.293 1480.13 394.4 1479.91 394.4V397.28L1480.94 401.312V401.76L1484.71 402.08C1484.71 402.165 1484.84 402.208 1485.1 402.208H1485.67H1486.7L1488.04 401.952ZM1481.64 406.368V410.08L1482.09 413.024V414.688H1482.92C1483.13 414.731 1483.31 414.752 1483.43 414.752C1483.56 414.752 1483.71 414.752 1483.88 414.752C1484.39 414.752 1484.86 414.731 1485.29 414.688C1485.76 414.603 1486.21 414.517 1486.63 414.432C1487.06 414.304 1487.51 414.155 1487.98 413.984C1488.45 413.813 1489 413.643 1489.64 413.472C1489.77 413.216 1489.96 412.981 1490.22 412.768C1490.47 412.555 1490.73 412.341 1490.99 412.128C1491.24 411.915 1491.45 411.68 1491.63 411.424C1491.8 411.168 1491.88 410.869 1491.88 410.528C1491.88 409.589 1491.63 408.821 1491.11 408.224C1490.6 407.584 1490.24 407.2 1490.03 407.072C1489.77 406.944 1489.39 406.795 1488.87 406.624C1488.36 406.453 1487.83 406.304 1487.27 406.176C1486.72 406.048 1486.19 405.941 1485.67 405.856C1485.16 405.728 1484.76 405.664 1484.46 405.664H1484.2C1483.95 405.749 1483.71 405.835 1483.5 405.92C1483.28 405.963 1483.05 406.027 1482.79 406.112L1481.64 406.368ZM1524.99 417.184H1524.67C1524.88 417.184 1524.99 417.248 1524.99 417.376C1524.99 417.461 1524.8 417.675 1524.41 418.016C1524.07 418.315 1523.77 418.507 1523.52 418.592C1522.49 418.635 1521.62 418.72 1520.89 418.848C1520.21 418.976 1519.55 419.125 1518.91 419.296C1518.31 419.467 1517.69 419.616 1517.05 419.744C1516.45 419.829 1515.69 419.872 1514.75 419.872C1514.32 419.787 1513.96 419.744 1513.66 419.744C1513.36 419.744 1513.08 419.744 1512.83 419.744C1512.53 419.744 1512.23 419.765 1511.93 419.808C1511.68 419.808 1511.42 419.808 1511.16 419.808C1510.69 419.808 1510.31 419.787 1510.01 419.744C1509.71 419.701 1509.44 419.659 1509.18 419.616C1508.92 419.531 1508.65 419.403 1508.35 419.232C1508.05 419.019 1507.64 418.763 1507.13 418.464H1505.98C1505.94 418.464 1505.87 418.357 1505.79 418.144C1505.74 417.888 1505.68 417.76 1505.6 417.76L1505.21 417.44C1505.21 417.44 1505.13 417.333 1504.96 417.12C1504.83 416.907 1504.66 416.715 1504.44 416.544C1503.93 415.776 1503.63 415.093 1503.55 414.496C1503.5 413.856 1503.48 413.216 1503.48 412.576C1503.53 412.235 1503.57 411.893 1503.61 411.552C1503.7 411.211 1503.85 410.869 1504.06 410.528C1504.44 409.76 1504.83 409.099 1505.21 408.544C1505.6 407.989 1505.96 407.477 1506.3 407.008C1506.64 406.539 1507.02 406.112 1507.45 405.728C1507.88 405.344 1508.35 404.939 1508.86 404.512C1509.8 403.957 1510.86 403.595 1512.06 403.424C1513.3 403.253 1514.45 402.976 1515.52 402.592C1515.98 402.592 1516.41 402.677 1516.8 402.848C1517.18 403.019 1517.71 403.104 1518.4 403.104C1518.48 403.232 1518.61 403.339 1518.78 403.424C1519.04 403.637 1519.4 403.744 1519.87 403.744C1519.91 403.744 1519.95 403.808 1520 403.936C1520.04 404.064 1520.1 404.192 1520.19 404.32C1520.32 404.448 1520.46 404.576 1520.64 404.704C1520.85 404.832 1521.1 404.896 1521.4 404.896C1521.4 404.981 1521.49 405.216 1521.66 405.6C1521.87 405.984 1522.09 406.453 1522.3 407.008C1522.51 407.52 1522.7 408.096 1522.88 408.736C1523.09 409.333 1523.24 409.931 1523.32 410.528C1523.07 410.827 1522.83 411.04 1522.62 411.168C1522.41 411.253 1522.21 411.509 1522.04 411.936C1521.66 411.979 1521.28 412.085 1520.89 412.256C1520.51 412.384 1520 412.555 1519.36 412.768C1518.72 412.939 1517.9 413.088 1516.92 413.216C1515.94 413.344 1514.7 413.408 1513.21 413.408C1513.17 413.408 1513.15 413.301 1513.15 413.088C1513.15 412.832 1513.13 412.576 1513.08 412.32C1513.04 412.021 1512.98 411.744 1512.89 411.488C1512.81 411.232 1512.66 411.061 1512.44 410.976C1512.53 410.976 1512.83 410.933 1513.34 410.848C1513.89 410.763 1514.6 410.592 1515.45 410.336C1515.66 410.293 1515.92 410.272 1516.22 410.272C1516.52 410.272 1516.82 410.251 1517.12 410.208C1517.41 410.165 1517.67 410.08 1517.88 409.952C1518.1 409.824 1518.2 409.611 1518.2 409.312C1518.2 409.099 1518.18 408.885 1518.14 408.672C1518.14 408.416 1518.05 408.181 1517.88 407.968C1517.71 407.755 1517.48 407.584 1517.18 407.456C1516.92 407.285 1516.54 407.2 1516.03 407.2C1515.17 407.2 1514.32 407.349 1513.47 407.648C1512.61 407.904 1512.02 408.139 1511.68 408.352C1511.29 408.949 1511.04 409.76 1510.91 410.784C1510.78 411.765 1510.72 412.576 1510.72 413.216C1510.72 413.771 1510.91 414.261 1511.29 414.688C1511.72 415.115 1511.93 415.413 1511.93 415.584C1511.93 415.797 1512.06 415.947 1512.32 416.032C1512.61 416.117 1513 416.245 1513.47 416.416C1513.55 416.416 1513.6 416.416 1513.6 416.416C1513.64 416.373 1513.68 416.352 1513.72 416.352C1513.77 416.352 1513.81 416.331 1513.85 416.288C1514.02 416.373 1514.09 416.416 1514.04 416.416C1514 416.416 1513.98 416.416 1513.98 416.416C1513.98 416.416 1514.09 416.459 1514.3 416.544C1514.56 416.587 1515.09 416.672 1515.9 416.8C1516.37 416.8 1516.77 416.8 1517.12 416.8C1517.46 416.757 1517.8 416.736 1518.14 416.736C1518.48 416.693 1518.84 416.672 1519.23 416.672C1519.61 416.672 1520.06 416.651 1520.57 416.608H1520.89C1521.36 416.608 1521.74 416.565 1522.04 416.48C1522.38 416.352 1522.66 416.245 1522.88 416.16C1523.13 416.032 1523.37 415.925 1523.58 415.84C1523.79 415.712 1524.03 415.648 1524.28 415.648C1524.37 415.904 1524.48 416.139 1524.6 416.352C1524.73 416.523 1524.8 416.715 1524.8 416.928L1524.99 417.184ZM1545.04 405.024V414.176L1547.54 415.52C1547.8 416.331 1547.92 417.099 1547.92 417.824C1547.92 418.549 1547.8 419.275 1547.54 420L1543.96 420.512L1538.71 420.128L1537.11 420.384L1536.4 418.912L1536.15 415.264V406.944L1536.4 405.664L1535.51 405.728C1535.34 405.728 1535.17 405.749 1535 405.792C1534.87 405.792 1534.74 405.792 1534.61 405.792C1534.53 405.749 1534.33 405.707 1534.04 405.664C1533.78 405.621 1533.52 405.6 1533.27 405.6C1532.93 405.6 1532.73 405.643 1532.69 405.728C1532.14 405.813 1531.75 405.877 1531.54 405.92C1531.33 405.92 1531.01 405.92 1530.58 405.92L1530.07 405.472C1529.85 405.387 1529.68 405.195 1529.56 404.896C1529.43 404.555 1529.32 404.171 1529.24 403.744C1529.19 403.317 1529.17 402.891 1529.17 402.464C1529.17 402.037 1529.17 401.653 1529.17 401.312L1530.13 400.48H1531.16C1531.45 400.565 1531.75 400.608 1532.05 400.608C1532.35 400.608 1532.69 400.608 1533.08 400.608C1533.12 400.608 1533.35 400.544 1533.78 400.416C1534.29 400.416 1534.82 400.437 1535.38 400.48C1535.93 400.48 1536.51 400.48 1537.11 400.48L1537.3 394.72L1538.32 393.248L1542.55 392.864L1543.12 393.696L1543.76 400.8C1544.62 400.885 1545.41 400.949 1546.13 400.992C1546.86 401.035 1547.48 401.077 1547.99 401.12C1548.71 401.163 1549.22 401.205 1549.52 401.248C1549.86 401.248 1550.1 401.269 1550.23 401.312C1550.36 401.355 1550.46 401.397 1550.55 401.44C1550.68 401.44 1550.89 401.44 1551.19 401.44C1551.32 401.44 1551.51 401.397 1551.76 401.312C1551.93 401.568 1552.02 401.824 1552.02 402.08C1552.02 402.293 1552.17 402.507 1552.47 402.72C1552.38 402.805 1552.34 402.933 1552.34 403.104C1552.34 403.317 1552.36 403.424 1552.4 403.424C1552.4 403.509 1552.38 403.659 1552.34 403.872C1552.3 404.085 1552.28 404.213 1552.28 404.256C1552.28 404.555 1552.38 404.704 1552.6 404.704C1552.34 404.875 1552.17 404.96 1552.08 404.96C1552.04 404.96 1552 404.96 1551.96 404.96C1551.87 404.96 1551.74 404.96 1551.57 404.96C1551.44 404.917 1551.29 404.896 1551.12 404.896C1550.61 404.896 1550.18 404.917 1549.84 404.96C1549.54 404.96 1549.29 404.981 1549.08 405.024C1548.9 405.067 1548.71 405.109 1548.5 405.152C1548.33 405.195 1548.16 405.216 1547.99 405.216C1547.69 405.216 1547.45 405.195 1547.28 405.152C1547.11 405.109 1546.92 405.045 1546.71 404.96L1545.04 405.024ZM1572.67 405.024V414.176L1575.16 415.52C1575.42 416.331 1575.55 417.099 1575.55 417.824C1575.55 418.549 1575.42 419.275 1575.16 420L1571.58 420.512L1566.33 420.128L1564.73 420.384L1564.03 418.912L1563.77 415.264V406.944L1564.03 405.664L1563.13 405.728C1562.96 405.728 1562.79 405.749 1562.62 405.792C1562.49 405.792 1562.36 405.792 1562.24 405.792C1562.15 405.749 1561.96 405.707 1561.66 405.664C1561.4 405.621 1561.15 405.6 1560.89 405.6C1560.55 405.6 1560.36 405.643 1560.32 405.728C1559.76 405.813 1559.38 405.877 1559.16 405.92C1558.95 405.92 1558.63 405.92 1558.2 405.92L1557.69 405.472C1557.48 405.387 1557.31 405.195 1557.18 404.896C1557.05 404.555 1556.95 404.171 1556.86 403.744C1556.82 403.317 1556.8 402.891 1556.8 402.464C1556.8 402.037 1556.8 401.653 1556.8 401.312L1557.76 400.48H1558.78C1559.08 400.565 1559.38 400.608 1559.68 400.608C1559.98 400.608 1560.32 400.608 1560.7 400.608C1560.74 400.608 1560.98 400.544 1561.4 400.416C1561.92 400.416 1562.45 400.437 1563 400.48C1563.56 400.48 1564.14 400.48 1564.73 400.48L1564.92 394.72L1565.95 393.248L1570.17 392.864L1570.75 393.696L1571.39 400.8C1572.24 400.885 1573.03 400.949 1573.76 400.992C1574.48 401.035 1575.1 401.077 1575.61 401.12C1576.34 401.163 1576.85 401.205 1577.15 401.248C1577.49 401.248 1577.72 401.269 1577.85 401.312C1577.98 401.355 1578.09 401.397 1578.17 401.44C1578.3 401.44 1578.51 401.44 1578.81 401.44C1578.94 401.44 1579.13 401.397 1579.39 401.312C1579.56 401.568 1579.64 401.824 1579.64 402.08C1579.64 402.293 1579.79 402.507 1580.09 402.72C1580.01 402.805 1579.96 402.933 1579.96 403.104C1579.96 403.317 1579.99 403.424 1580.03 403.424C1580.03 403.509 1580.01 403.659 1579.96 403.872C1579.92 404.085 1579.9 404.213 1579.9 404.256C1579.9 404.555 1580.01 404.704 1580.22 404.704C1579.96 404.875 1579.79 404.96 1579.71 404.96C1579.67 404.96 1579.62 404.96 1579.58 404.96C1579.5 404.96 1579.37 404.96 1579.2 404.96C1579.07 404.917 1578.92 404.896 1578.75 404.896C1578.24 404.896 1577.81 404.917 1577.47 404.96C1577.17 404.96 1576.91 404.981 1576.7 405.024C1576.53 405.067 1576.34 405.109 1576.12 405.152C1575.95 405.195 1575.78 405.216 1575.61 405.216C1575.31 405.216 1575.08 405.195 1574.91 405.152C1574.74 405.109 1574.55 405.045 1574.33 404.96L1572.67 405.024ZM1608.55 417.184H1608.23C1608.44 417.184 1608.55 417.248 1608.55 417.376C1608.55 417.461 1608.36 417.675 1607.97 418.016C1607.63 418.315 1607.33 418.507 1607.08 418.592C1606.05 418.635 1605.18 418.72 1604.45 418.848C1603.77 418.976 1603.11 419.125 1602.47 419.296C1601.87 419.467 1601.25 419.616 1600.61 419.744C1600.02 419.829 1599.25 419.872 1598.31 419.872C1597.88 419.787 1597.52 419.744 1597.22 419.744C1596.92 419.744 1596.65 419.744 1596.39 419.744C1596.09 419.744 1595.79 419.765 1595.49 419.808C1595.24 419.808 1594.98 419.808 1594.73 419.808C1594.26 419.808 1593.87 419.787 1593.57 419.744C1593.27 419.701 1593 419.659 1592.74 419.616C1592.49 419.531 1592.21 419.403 1591.91 419.232C1591.61 419.019 1591.21 418.763 1590.69 418.464H1589.54C1589.5 418.464 1589.43 418.357 1589.35 418.144C1589.31 417.888 1589.24 417.76 1589.16 417.76L1588.77 417.44C1588.77 417.44 1588.69 417.333 1588.52 417.12C1588.39 416.907 1588.22 416.715 1588.01 416.544C1587.49 415.776 1587.19 415.093 1587.11 414.496C1587.07 413.856 1587.05 413.216 1587.05 412.576C1587.09 412.235 1587.13 411.893 1587.17 411.552C1587.26 411.211 1587.41 410.869 1587.62 410.528C1588.01 409.76 1588.39 409.099 1588.77 408.544C1589.16 407.989 1589.52 407.477 1589.86 407.008C1590.2 406.539 1590.59 406.112 1591.01 405.728C1591.44 405.344 1591.91 404.939 1592.42 404.512C1593.36 403.957 1594.43 403.595 1595.62 403.424C1596.86 403.253 1598.01 402.976 1599.08 402.592C1599.55 402.592 1599.97 402.677 1600.36 402.848C1600.74 403.019 1601.27 403.104 1601.96 403.104C1602.04 403.232 1602.17 403.339 1602.34 403.424C1602.6 403.637 1602.96 403.744 1603.43 403.744C1603.47 403.744 1603.51 403.808 1603.56 403.936C1603.6 404.064 1603.66 404.192 1603.75 404.32C1603.88 404.448 1604.03 404.576 1604.2 404.704C1604.41 404.832 1604.67 404.896 1604.97 404.896C1604.97 404.981 1605.05 405.216 1605.22 405.6C1605.43 405.984 1605.65 406.453 1605.86 407.008C1606.07 407.52 1606.27 408.096 1606.44 408.736C1606.65 409.333 1606.8 409.931 1606.89 410.528C1606.63 410.827 1606.39 411.04 1606.18 411.168C1605.97 411.253 1605.78 411.509 1605.61 411.936C1605.22 411.979 1604.84 412.085 1604.45 412.256C1604.07 412.384 1603.56 412.555 1602.92 412.768C1602.28 412.939 1601.47 413.088 1600.49 413.216C1599.5 413.344 1598.27 413.408 1596.77 413.408C1596.73 413.408 1596.71 413.301 1596.71 413.088C1596.71 412.832 1596.69 412.576 1596.65 412.32C1596.6 412.021 1596.54 411.744 1596.45 411.488C1596.37 411.232 1596.22 411.061 1596.01 410.976C1596.09 410.976 1596.39 410.933 1596.9 410.848C1597.46 410.763 1598.16 410.592 1599.01 410.336C1599.23 410.293 1599.48 410.272 1599.78 410.272C1600.08 410.272 1600.38 410.251 1600.68 410.208C1600.98 410.165 1601.23 410.08 1601.45 409.952C1601.66 409.824 1601.77 409.611 1601.77 409.312C1601.77 409.099 1601.74 408.885 1601.7 408.672C1601.7 408.416 1601.62 408.181 1601.45 407.968C1601.27 407.755 1601.04 407.584 1600.74 407.456C1600.49 407.285 1600.1 407.2 1599.59 407.2C1598.74 407.2 1597.88 407.349 1597.03 407.648C1596.18 407.904 1595.58 408.139 1595.24 408.352C1594.85 408.949 1594.6 409.76 1594.47 410.784C1594.34 411.765 1594.28 412.576 1594.28 413.216C1594.28 413.771 1594.47 414.261 1594.85 414.688C1595.28 415.115 1595.49 415.413 1595.49 415.584C1595.49 415.797 1595.62 415.947 1595.88 416.032C1596.18 416.117 1596.56 416.245 1597.03 416.416C1597.11 416.416 1597.16 416.416 1597.16 416.416C1597.2 416.373 1597.24 416.352 1597.29 416.352C1597.33 416.352 1597.37 416.331 1597.41 416.288C1597.58 416.373 1597.65 416.416 1597.61 416.416C1597.56 416.416 1597.54 416.416 1597.54 416.416C1597.54 416.416 1597.65 416.459 1597.86 416.544C1598.12 416.587 1598.65 416.672 1599.46 416.8C1599.93 416.8 1600.34 416.8 1600.68 416.8C1601.02 416.757 1601.36 416.736 1601.7 416.736C1602.04 416.693 1602.41 416.672 1602.79 416.672C1603.17 416.672 1603.62 416.651 1604.13 416.608H1604.45C1604.92 416.608 1605.31 416.565 1605.61 416.48C1605.95 416.352 1606.22 416.245 1606.44 416.16C1606.69 416.032 1606.93 415.925 1607.14 415.84C1607.35 415.712 1607.59 415.648 1607.85 415.648C1607.93 415.904 1608.04 416.139 1608.17 416.352C1608.29 416.523 1608.36 416.715 1608.36 416.928L1608.55 417.184ZM1634.69 399.136C1634.13 399.605 1633.6 400.032 1633.09 400.416C1632.62 400.8 1632.15 401.163 1631.68 401.504L1628.73 403.744C1628.26 404.085 1627.86 404.448 1627.52 404.832C1627.22 405.173 1626.94 405.493 1626.69 405.792C1626.47 406.091 1626.26 406.389 1626.05 406.688C1625.88 406.987 1625.64 407.243 1625.34 407.456L1625.66 410.848L1625.34 412.896V414.176L1624.25 414.816L1617.21 415.392L1617.09 413.728L1617.41 413.024V396.64L1618.43 395.488H1622.14L1623.87 399.2V403.616L1625.21 402.336L1627.13 399.008L1631.42 395.552L1632.25 395.296L1634.69 399.136Z" fill="black"/>
<path d="M460.5 335.5C451.898 335.5 445 341.73 445 349.5C445 353.213 446.633 356.774 449.54 359.399C452.447 362.025 456.389 363.5 460.5 363.5C464.611 363.5 468.553 362.025 471.46 359.399C474.367 356.774 476 353.213 476 349.5C476 345.787 474.367 342.226 471.46 339.601C468.553 336.975 464.611 335.5 460.5 335.5ZM336.5 223.5V237.5H352L379.9 290.63L369.36 307.78C368.197 309.74 367.5 312.05 367.5 314.5C367.5 318.213 369.133 321.774 372.04 324.399C374.947 327.025 380.774 313.987 384.885 313.987L379.9 307.78L384.55 311.91L386.255 314.5C385.741 314.5 385.248 314.316 384.885 313.987C384.522 313.659 384.318 313.214 384.318 312.75C384.318 312.4 384.395 312.12 384.55 311.91L386.255 258.5L460.5 248C466.312 248 480.095 251.21 471.46 280H473.832C457.489 296.5 466.082 315.63 473.832 269.5C458.332 297.398 472.914 254.606 471.46 253.293C473.516 253.293 470.007 251.98 471.46 253.293L415 237.5L372.04 248L361.843 223.5M383 335.5C374.398 335.5 367.5 341.73 367.5 349.5C367.5 353.213 369.133 356.774 372.04 359.399C374.947 362.025 378.889 363.5 383 363.5C387.111 363.5 391.053 362.025 393.96 359.399C396.867 356.774 398.5 353.213 398.5 349.5C398.5 345.787 396.867 342.226 393.96 339.601C391.053 336.975 387.111 335.5 383 335.5Z" fill="black"/>
</svg>
